<svg xmlns="http://www.w3.org/2000/svg" viewBox="0 0 100 100" width="100" height="100">
  <defs>
    <linearGradient id="bg" x1="0%" y1="0%" x2="100%" y2="100%">
      <stop offset="0%" style="stop-color:#0f0a2e;stop-opacity:1" />
      <stop offset="100%" style="stop-color:#1a1145;stop-opacity:1" />
    </linearGradient>
  </defs>
  <rect width="100" height="100" rx="20" fill="url(#bg)" />
  <path d="M55 20c-18.8 0-34 15.2-34 34s15.2 34 34 34c4.4 0 8.6-.8 12.4-2.4-3.6 1.2-7.4 1.8-11.4 1.8-19.3 0-35-15.7-35-35 0-15.3 9.8-28.3 23.4-33.2C57 19.4 56 19.6 55 20z" fill="#c4b5fd" />
  <circle cx="65" cy="30" r="1.5" fill="#e0d5ff" opacity="0.8" />
  <circle cx="75" cy="45" r="1" fill="#e0d5ff" opacity="0.6" />
  <circle cx="70" cy="60" r="1.2" fill="#e0d5ff" opacity="0.7" />
  <circle cx="80" cy="35" r="0.8" fill="#e0d5ff" opacity="0.5" />
  <text x="50" y="95" text-anchor="middle" font-family="system-ui" font-size="8" font-weight="bold" fill="#a78bfa">Sleepzy</text>
</svg>
